<svg xmlns="http://www.w3.org/2000/svg" width="512" height="512" viewBox="0 0 512 512" fill="none">
  <rect width="512" height="512" rx="144" fill="#3566E8"/>
  <path d="M118 144H266C308.526 144 343 178.474 343 221V221C343 246.135 330.378 269.609 309.375 283.439L298.371 290.686L309.375 297.932C330.378 311.762 343 335.236 343 360.371V360.371C343 402.897 308.526 437.371 266 437.371H118V144Z" stroke="#FFF9EE" stroke-width="14"/>
  <path d="M154 111H302C344.526 111 379 145.474 379 188V188C379 213.135 366.378 236.609 345.375 250.439L334.371 257.686L345.375 264.932C366.378 278.762 379 302.236 379 327.371V327.371C379 369.897 344.526 404.371 302 404.371H154V111Z" stroke="#FFF9EE" stroke-width="14"/>
  <path d="M190 80H338C380.526 80 415 114.474 415 157V157C415 182.135 402.378 205.609 381.375 219.439L370.371 226.686L381.375 233.932C402.378 247.762 415 271.236 415 296.371V296.371C415 338.897 380.526 373.371 338 373.371H190V80Z" fill="#FFF9EE"/>
</svg>
