<svg xmlns="http://www.w3.org/2000/svg" width="64" height="64" viewBox="0 0 64 64" fill="none">
  <rect width="64" height="64" rx="18" fill="#3566E8"/>
  <path d="M15 18H33.5C38.7467 18 43 22.2533 43 27.5V27.5C43 30.6007 41.4427 33.4957 38.8516 35.2021L37.4941 36.0957L38.8516 36.9893C41.4427 38.6957 43 41.5907 43 44.6914V44.6914C43 49.9381 38.7467 54.1914 33.5 54.1914H15V18Z" stroke="#FFF9EE" stroke-width="2"/>
  <path d="M19.5 14H38C43.2467 14 47.5 18.2533 47.5 23.5V23.5C47.5 26.6007 45.9427 29.4957 43.3516 31.2021L41.9941 32.0957L43.3516 32.9893C45.9427 34.6957 47.5 37.5907 47.5 40.6914V40.6914C47.5 45.9381 43.2467 50.1914 38 50.1914H19.5V14Z" stroke="#FFF9EE" stroke-width="2"/>
  <path d="M24 10H42.5C47.7467 10 52 14.2533 52 19.5V19.5C52 22.6007 50.4427 25.4957 47.8516 27.2021L46.4941 28.0957L47.8516 28.9893C50.4427 30.6957 52 33.5907 52 36.6914V36.6914C52 41.9381 47.7467 46.1914 42.5 46.1914H24V10Z" fill="#FFF9EE"/>
</svg>
