<svg xmlns="http://www.w3.org/2000/svg" width="500" height="220" viewBox="0 0 500 220" fill="none">
  <path d="M65 46H152C175.196 46 194 64.804 194 88V88C194 101.71 187.11 114.501 175.645 122.051L169.64 126L175.645 129.949C187.11 137.499 194 150.29 194 164V164C194 187.196 175.196 206 152 206H65V46Z" stroke="#3566E8" stroke-width="6"/>
  <path d="M84 31H171C194.196 31 213 49.804 213 73V73C213 86.71 206.11 99.5013 194.645 107.051L188.64 111L194.645 114.949C206.11 122.499 213 135.29 213 149V149C213 172.196 194.196 191 171 191H84V31Z" stroke="#3566E8" stroke-width="6"/>
  <path d="M103 16H190C213.196 16 232 34.804 232 58V58C232 71.7103 225.11 84.5013 213.645 92.0513L207.64 96L213.645 99.9487C225.11 107.499 232 120.29 232 134V134C232 157.196 213.196 176 190 176H103V16Z" fill="#3566E8"/>
  <path d="M280.358 175V157.76H312.902C316.543 157.76 319.364 157.15 321.364 155.93C323.364 154.65 324.364 152.5 324.364 149.48C324.364 146.58 323.453 144.49 321.631 143.21C319.81 141.93 316.928 141.29 312.988 141.29H285.54V124.57H311.988C315.631 124.57 318.273 123.99 319.914 122.83C321.556 121.61 322.376 119.67 322.376 117.01C322.376 114.29 321.496 112.32 319.734 111.1C318.034 109.82 315.303 109.18 311.54 109.18H280.358V92H314.169C323.745 92 331.137 94.12 336.345 98.36C341.555 102.6 344.159 108.44 344.159 115.88C344.159 120.78 342.947 124.99 340.521 128.51C338.159 131.97 334.697 134.51 330.133 136.13C335.527 137.47 339.617 140.13 342.405 144.11C345.253 148.09 346.677 152.93 346.677 158.64C346.677 166.46 343.919 172.57 338.405 176.97C332.951 181.31 325.469 183.48 315.957 183.48H280.358V175Z" fill="#39414D"/>
  <path d="M368.506 183V92H388.02V183H368.506Z" fill="#39414D"/>
  <path d="M449.335 184.92C441.743 184.92 435.109 183.73 429.431 181.35C423.815 178.97 419.464 175.66 416.379 171.42C413.356 167.12 411.845 162.23 411.845 156.75H431.447C431.447 159.79 432.79 162.17 435.477 163.89C438.225 165.55 442.052 166.38 446.961 166.38C451.396 166.38 454.837 165.73 457.287 164.43C459.737 163.07 460.962 161.23 460.962 158.91C460.962 156.89 460.187 155.38 458.637 154.38C457.149 153.38 454.698 152.64 451.286 152.16L434.723 149.76C426.307 148.54 420.151 145.93 416.253 141.93C412.356 137.93 410.407 132.73 410.407 126.33C410.407 119.33 413.296 113.67 419.073 109.35C424.911 104.97 432.74 102.78 442.56 102.78C451.829 102.78 459.355 104.94 465.138 109.26C470.921 113.52 473.812 119.03 473.812 125.79H454.21C454.21 123.05 453.096 120.9 450.868 119.34C448.641 117.78 445.608 117 441.773 117C438.119 117 435.267 117.65 433.218 118.95C431.169 120.19 430.144 121.97 430.144 124.29C430.144 126.13 430.895 127.58 432.396 128.64C433.956 129.64 436.509 130.41 440.057 130.95L456.449 133.44C465.168 134.78 471.443 137.41 475.276 141.33C479.172 145.25 481.12 150.45 481.12 156.93C481.12 164.11 478.023 169.89 471.831 174.27C465.7 178.65 457.536 180.84 447.339 180.84L449.335 184.92Z" fill="#39414D"/>
  <path d="M500 183V166.04H520.983V183H500Z" fill="#39414D"/>
</svg>
