<svg xmlns="http://www.w3.org/2000/svg" width="128" height="128" viewBox="0 0 128 128" fill="none">
  <path d="M24 27H73C86.2548 27 97 37.7452 97 51V51C97 58.8343 93.0615 66.1435 86.5127 70.456L83.0811 72.7158L86.5127 74.9766C93.0615 79.2891 97 86.5977 97 94.4316V94.4316C97 107.687 86.2548 118.432 73 118.432H24V27Z" stroke="#3566E8" stroke-width="4"/>
  <path d="M35 19H84C97.2548 19 108 29.7452 108 43V43C108 50.8343 104.061 58.1435 97.5127 62.456L94.0811 64.7158L97.5127 66.9766C104.061 71.2891 108 78.5977 108 86.4316V86.4316C108 99.6865 97.2548 110.432 84 110.432H35V19Z" stroke="#3566E8" stroke-width="4"/>
  <path d="M46 12H95C108.255 12 119 22.7452 119 36V36C119 43.8343 115.061 51.1435 108.513 55.456L105.081 57.7158L108.513 59.9766C115.061 64.2891 119 71.5977 119 79.4316V79.4316C119 92.6865 108.255 103.432 95 103.432H46V12Z" fill="#3566E8"/>
</svg>
